<svg width="12" height="12" viewBox="0 0 12 12" xmlns="http://www.w3.org/2000/svg">
  <path
    d="M6.00008 1.9702C6.69495 1.9702 7.26005 2.52415 7.26005 3.20531C7.26005 3.88441 6.69495 4.43836 6.00008 4.43836C5.30521 4.43836 4.74011 3.88441 4.74011 3.20531C4.74011 2.52415 5.30521 1.9702 6.00008 1.9702ZM6.00008 6.18639C7.67864 6.18639 9.04326 4.8487 9.04326 3.20531C9.04326 1.55986 7.67864 0.222168 6.00008 0.222168C4.32152 0.222168 2.95899 1.55986 2.95899 3.20531C2.95899 4.8487 4.32152 6.18639 6.00008 6.18639ZM7.23075 8.61968C7.85027 8.48017 8.44676 8.24012 8.99722 7.90159C9.41372 7.64513 9.5393 7.10554 9.27768 6.69726C9.01396 6.28692 8.4656 6.16382 8.04701 6.42233C6.80169 7.18966 5.19847 7.18966 3.95106 6.42233C3.53456 6.16382 2.98411 6.28692 2.72248 6.69726C2.46086 7.10554 2.58644 7.64513 3.00294 7.90159C3.55339 8.24012 4.14989 8.48017 4.76941 8.61968L3.06782 10.2856C2.72039 10.6262 2.72039 11.1802 3.06782 11.5208C3.24363 11.691 3.46968 11.7772 3.69781 11.7772C3.92594 11.7772 4.15408 11.691 4.32989 11.5208L6.00008 9.88351L7.67236 11.5208C8.0198 11.8634 8.58281 11.8634 8.93233 11.5208C9.27977 11.1802 9.27977 10.6262 8.93233 10.2856L7.23075 8.61968Z"
  />
</svg>
