<?xml version="1.0" standalone="no"?>
<!DOCTYPE svg PUBLIC "-//W3C//DTD SVG 20010904//EN"
 "http://www.w3.org/TR/2001/REC-SVG-20010904/DTD/svg10.dtd">
<svg version="1.0" xmlns="http://www.w3.org/2000/svg"
 width="700.000000pt" height="700.000000pt" viewBox="0 0 700.000000 700.000000"
 preserveAspectRatio="xMidYMid meet">
<metadata>
Created by potrace 1.14, written by Peter Selinger 2001-2017
</metadata>
<g transform="translate(0.000000,700.000000) scale(0.100000,-0.100000)"
fill="#000000" stroke="none">
<path d="M3200 5194 c-943 -641 -875 -586 -875 -699 1 -92 35 -146 175 -270
283 -253 1054 -872 1114 -895 22 -8 37 -6 69 8 38 17 389 281 403 303 6 10
-42 99 -54 99 -4 0 -86 -61 -182 -135 -95 -74 -181 -135 -190 -135 -10 0 -25
9 -35 20 -26 29 -17 121 16 156 24 26 295 239 802 628 241 186 257 200 257
230 0 23 -9 41 -32 63 -27 25 -966 707 -1087 790 -68 46 -79 42 -381 -163z"/>
<path d="M4475 4084 c-154 -119 -280 -218 -280 -222 0 -13 50 -92 58 -92 14 0
518 393 528 412 21 39 7 121 -20 117 -3 0 -132 -97 -286 -215z"/>
<path d="M2722 3608 c3 -377 4 -381 88 -472 164 -178 570 -292 913 -257 268
27 460 106 602 248 l55 55 0 294 c0 162 -2 294 -5 294 -3 0 -27 -17 -53 -38
l-48 -38 13 -49 c7 -28 15 -81 19 -119 7 -65 6 -69 -12 -62 -61 24 -68 21 -98
-43 -31 -63 -46 -70 -46 -20 0 33 -29 169 -36 169 -2 0 -86 -64 -187 -142
-200 -156 -249 -188 -288 -188 -16 0 -52 19 -90 47 -84 61 -506 396 -681 540
-76 62 -140 113 -143 113 -4 0 -5 -150 -3 -332z"/>
<path d="M3955 2480 c-136 -28 -225 -113 -225 -218 0 -122 58 -164 315 -232
88 -23 177 -49 197 -57 120 -48 116 -182 -6 -242 -65 -32 -189 -40 -268 -17
-71 20 -132 66 -158 117 l-21 41 -47 -7 c-26 -4 -49 -8 -50 -10 -9 -9 40 -96
72 -128 79 -80 187 -112 348 -105 85 4 114 9 163 32 33 15 73 39 89 54 63 59
84 167 47 240 -38 75 -82 97 -319 160 -101 27 -196 58 -210 69 -97 72 -39 193
106 224 134 27 288 -37 324 -137 12 -35 13 -36 58 -29 25 4 47 9 49 11 14 13
-26 92 -67 133 -93 92 -246 131 -397 101z"/>
<path d="M1620 2050 l0 -420 45 0 45 0 2 322 3 322 170 -320 c164 -308 171
-319 201 -322 l32 -3 163 306 c89 168 168 314 176 323 10 14 12 -40 13 -305
l0 -323 45 0 45 0 0 420 0 420 -47 0 -48 0 -180 -337 c-99 -185 -184 -342
-190 -349 -7 -10 -59 77 -199 336 l-188 350 -44 0 -44 0 0 -420z"/>
<path d="M2932 2058 c-89 -227 -162 -416 -162 -420 0 -5 21 -8 48 -8 l47 0 40
103 41 102 216 3 216 2 42 -105 42 -105 50 0 c42 0 49 2 44 18 -4 9 -78 197
-165 417 l-158 400 -69 3 -69 3 -163 -413z m405 -134 c-2 -3 -83 -3 -180 -2
l-175 3 82 205 c45 113 86 214 90 225 6 15 29 -33 97 -203 50 -123 89 -226 86
-228z"/>
<path d="M4917 2463 c-11 -17 -327 -814 -327 -824 0 -5 22 -9 48 -9 l49 0 40
103 41 102 215 3 215 2 42 -105 42 -105 49 0 c27 0 49 3 49 8 0 4 -74 192
-164 417 l-164 410 -65 3 c-36 2 -68 -1 -70 -5z m157 -313 c47 -118 86 -218
86 -222 0 -5 -81 -8 -179 -8 l-179 0 90 225 c50 124 92 225 93 223 2 -2 42
-100 89 -218z"/>
</g>
</svg>
