<svg width="12" height="12" viewBox="0 0 12 12" xmlns="http://www.w3.org/2000/svg">
  <path
    d="M11.6747 8.47054C11.6437 8.42082 11.4515 8.02173 10.527 7.20145C9.55918 6.34249 9.68919 6.48197 10.8549 4.99676C11.5649 4.09224 11.8488 3.53986 11.76 3.30371C11.6754 3.07862 11.1532 3.138 11.1532 3.138L9.41689 3.14767C9.41689 3.14767 9.28833 3.1311 9.19227 3.18564C9.09909 3.2395 9.03914 3.36379 9.03914 3.36379C9.03914 3.36379 8.76396 4.06393 8.39704 4.65912C7.62349 5.91509 7.31363 5.98138 7.18723 5.90335C6.89326 5.72176 6.96694 5.17283 6.96694 4.7834C6.96694 3.56609 7.15978 3.0586 6.59063 2.92741C6.40139 2.88391 6.26272 2.85491 5.77952 2.85007C5.1598 2.84386 4.63471 2.85214 4.33785 2.99093C4.13995 3.08345 3.98755 3.28991 4.08072 3.30164C4.19557 3.31614 4.45559 3.36862 4.59354 3.54814C4.77194 3.77945 4.76544 4.30007 4.76544 4.30007C4.76544 4.30007 4.868 5.73281 4.52637 5.91095C4.29163 6.03316 3.97022 5.7839 3.28044 4.64393C2.92725 4.06047 2.66001 3.41488 2.66001 3.41488C2.66001 3.41488 2.60873 3.29474 2.517 3.23052C2.40577 3.1525 2.24976 3.12764 2.24976 3.12764L0.598635 3.13731C0.598635 3.13731 0.350894 3.14421 0.259888 3.2471C0.178993 3.33893 0.253387 3.52812 0.253387 3.52812C0.253387 3.52812 1.54626 6.41914 3.00959 7.87673C4.3523 9.2128 5.8763 9.12511 5.8763 9.12511H6.5668C6.5668 9.12511 6.77553 9.10301 6.88171 8.99323C6.97994 8.89242 6.97633 8.70323 6.97633 8.70323C6.97633 8.70323 6.9626 7.81735 7.39308 7.68685C7.81705 7.55842 8.36165 8.54304 8.93875 8.92211C9.375 9.20866 9.70653 9.14582 9.70653 9.14582L11.25 9.12511C11.25 9.12511 12.0575 9.07747 11.6747 8.47054Z"
  />
</svg>
