<svg width="12" height="12" viewBox="0 0 12 12" xmlns="http://www.w3.org/2000/svg">
  <path
    d="M7.02186 0.484863C6.68499 0.484863 6.36888 0.664295 6.16612 0.923053C5.96336 1.18181 5.85161 1.49723 5.77019 1.82965C5.64087 2.36417 5.60095 2.95724 5.59138 3.49175C4.64464 3.55786 3.78731 3.85251 3.07526 4.30769C2.78629 4.05271 2.43825 3.91106 2.10458 3.91483C1.72461 3.91861 1.36379 4.09049 1.09558 4.44368C0.583096 5.11797 0.642167 6.221 1.23607 6.8764C1.19935 7.07849 1.17221 7.28625 1.17221 7.49591C1.17221 9.71708 3.3339 11.5152 6.00008 11.5152C8.66627 11.5152 10.828 9.71519 10.828 7.49591C10.828 7.28625 10.8008 7.07849 10.7641 6.8764C11.358 6.221 11.4171 5.11797 10.9046 4.44368C10.6364 4.09049 10.2756 3.91861 9.89559 3.91483C9.56192 3.91106 9.21388 4.05271 8.92491 4.30769C8.21605 3.85439 7.36351 3.55975 6.42157 3.49175C6.43434 2.99879 6.46786 2.48694 6.56206 2.10163C6.62113 1.85987 6.69138 1.68422 6.76641 1.58789C6.84145 1.49157 6.89573 1.4519 7.02186 1.4519C7.29486 1.4519 7.32998 1.54445 7.49443 1.76921C7.57745 1.88254 7.67324 2.0242 7.8265 2.16207C7.97977 2.29995 8.20647 2.41894 8.45234 2.41894V1.4519C8.38369 1.4519 8.37091 1.45002 8.32462 1.40657C8.27832 1.36313 8.21446 1.26303 8.12026 1.13459C7.93187 0.875835 7.56627 0.484863 7.02186 0.484863ZM9.67846 0.575523C9.04305 0.575523 8.52897 1.1837 8.52897 1.93542C8.52897 2.68715 9.04305 3.29532 9.67846 3.29532C10.3139 3.29532 10.828 2.68715 10.828 1.93542C10.828 1.1837 10.3139 0.575523 9.67846 0.575523ZM9.67846 1.05904C10.0872 1.05904 10.4192 1.4519 10.4192 1.93542C10.4192 2.41894 10.0872 2.8118 9.67846 2.8118C9.26975 2.8118 8.93768 2.41894 8.93768 1.93542C8.93768 1.4519 9.26975 1.05904 9.67846 1.05904ZM6.00008 4.24725C8.26235 4.24725 10.1766 5.73748 10.1766 7.49591C10.1766 9.25622 8.26235 10.7446 6.00008 10.7446C3.73782 10.7446 1.82359 9.25622 1.82359 7.49591C1.82359 5.73748 3.73782 4.24725 6.00008 4.24725ZM2.11735 4.68544C2.2307 4.68733 2.34885 4.71755 2.4622 4.7761C2.05189 5.14441 1.7262 5.56749 1.50429 6.04535C1.35102 5.67137 1.39253 5.20485 1.58092 4.95743C1.71822 4.7761 1.90821 4.68356 2.11735 4.68544ZM9.88282 4.68544C10.092 4.68356 10.2819 4.7761 10.4192 4.95743C10.6076 5.20485 10.6491 5.67137 10.4959 6.04535C10.274 5.56749 9.94828 5.14441 9.53797 4.7761C9.65132 4.71755 9.76947 4.68733 9.88282 4.68544ZM4.36525 5.89425C3.95654 5.89425 3.62446 6.28711 3.62446 6.77063C3.62446 7.25415 3.95654 7.64701 4.36525 7.64701C4.77396 7.64701 5.10603 7.25415 5.10603 6.77063C5.10603 6.28711 4.77396 5.89425 4.36525 5.89425ZM7.63492 5.89425C7.22621 5.89425 6.89413 6.28711 6.89413 6.77063C6.89413 7.25415 7.22621 7.64701 7.63492 7.64701C8.04363 7.64701 8.3757 7.25415 8.3757 6.77063C8.3757 6.28711 8.04363 5.89425 7.63492 5.89425ZM3.96931 8.87092C4.22954 9.50743 5.03419 10.125 6.00008 10.125C6.96598 10.125 7.7834 9.50743 8.04363 8.87092C7.57106 9.23167 6.82548 9.47532 6.00008 9.47532C5.17468 9.47532 4.44188 9.23167 3.96931 8.87092Z"
  />
</svg>
