<svg xmlns="http://www.w3.org/2000/svg" xmlns:xlink="http://www.w3.org/1999/xlink"><symbol id="arrow-right" viewBox="0 0 13 12">
  <path d="M0.343146 5.99963H11.6569M11.6569 5.99963L6.03746 0.380236M11.6569 5.99963L6.03746 11.619"/>
</symbol><symbol id="arrow-up" viewBox="0 0 10 10"><g fill="none">
  <path d="M1 9L9 1M9 1H1.05298M9 1V8.94702"/>
</g></symbol><symbol id="button-left" viewBox="0 0 11 12">
<path d="M11 5.6875H1M1 5.6875L5.96689 11M1 5.6875L5.96689 1"/>
</symbol><symbol id="button-right" viewBox="0 0 11 12">
<path d="M0 5.6875H10M10 5.6875L5.03311 11M10 5.6875L5.03311 1"/>
</symbol><symbol id="checkbox-icon" viewBox="0 0 10 8"><g fill="none">
  <path d="M1 3.5L3.94737 7L9 1" stroke-linecap="round" stroke-linejoin="round"/>
</g></symbol><symbol id="close-modal-mobile" viewBox="0 0 14 14"><g fill="none">
<path d="M1 13L7 7M7 7L13 1M7 7L13 13M7 7L1 1" stroke="#316DC2" stroke-linecap="round" stroke-linejoin="round"/>
</g></symbol><symbol id="close-modal" viewBox="0 0 20 20">
<path d="M1 19L10 10M10 10L19 1M10 10L19 19M10 10L1 1" stroke-linecap="round" stroke-linejoin="round"/>
</symbol><symbol id="closed-sublist-navigation" viewBox="0 0 12 12"><g fill="none">
  <path d="M11.454 3.81812L5.99947 8.72721L0.544922 3.81812"/>
</g></symbol><symbol id="logo-header" viewBox="0 0 28 28">
<path d="M0 27.8701V21.633H0.676259L3.51154 26.8782L6.33178 21.633H7.01806V27.8657H6.31676V23.0536L3.74697 27.8701H3.27109L0.706315 23.0536V27.8701H0Z"/>
<path d="M18.2848 28C17.7805 28 17.3264 27.9278 16.9223 27.7834C16.5215 27.6362 16.1892 27.4283 15.9254 27.1597C15.6649 26.8912 15.4946 26.5721 15.4145 26.2025L16.1659 26.0942C16.2861 26.4985 16.5399 26.8161 16.9273 27.0471C17.3147 27.2752 17.7772 27.3893 18.3149 27.3893C18.6689 27.3893 18.9861 27.3416 19.2666 27.2464C19.5472 27.1482 19.7676 27.0096 19.9279 26.8305C20.0882 26.6515 20.1683 26.4393 20.1683 26.1938C20.1683 26.0321 20.1349 25.895 20.0681 25.7824C20.0013 25.6669 19.9128 25.5716 19.8026 25.4965C19.6924 25.4214 19.5722 25.3593 19.442 25.3103C19.3117 25.2583 19.1848 25.2164 19.0613 25.1846L17.2329 24.7125C17.0124 24.6577 16.8087 24.5884 16.6217 24.5046C16.4347 24.418 16.2711 24.3155 16.1308 24.1971C15.9939 24.0758 15.887 23.9343 15.8102 23.7726C15.7334 23.6109 15.695 23.4261 15.695 23.2182C15.695 22.8659 15.8019 22.5613 16.0156 22.3043C16.2293 22.0473 16.5215 21.8495 16.8922 21.7109C17.2629 21.5723 17.6854 21.5045 18.1596 21.5074C18.6405 21.5074 19.0696 21.581 19.447 21.7283C19.8277 21.8755 20.1416 22.0863 20.3887 22.3606C20.6359 22.6321 20.7995 22.954 20.8796 23.3265L20.1082 23.4478C20.0581 23.1764 19.9429 22.941 19.7626 22.7418C19.5822 22.5425 19.3518 22.3895 19.0713 22.2827C18.7941 22.1729 18.4885 22.1166 18.1546 22.1137C17.8306 22.1137 17.5418 22.1614 17.288 22.2567C17.0375 22.3491 16.8388 22.4761 16.6918 22.6378C16.5449 22.7995 16.4714 22.9843 16.4714 23.1922C16.4714 23.403 16.5382 23.5719 16.6718 23.699C16.8087 23.8261 16.9757 23.9257 17.1727 23.9979C17.3731 24.0701 17.5668 24.1292 17.7538 24.1754L19.1665 24.5349C19.3134 24.5696 19.4854 24.6201 19.6824 24.6865C19.8828 24.7501 20.0765 24.8425 20.2635 24.9637C20.4538 25.0821 20.6108 25.2381 20.7344 25.4315C20.8579 25.625 20.9197 25.8704 20.9197 26.1679C20.9197 26.4566 20.8529 26.715 20.7193 26.9432C20.5891 27.1713 20.4038 27.3633 20.1633 27.5192C19.9262 27.6751 19.6473 27.7935 19.3267 27.8744C19.0095 27.9581 18.6622 28 18.2848 28Z"/>
<path fill-rule="evenodd" clip-rule="evenodd" d="M11.0087 21.633L8.52407 27.8701H9.29049L9.89298 26.3584H13.0974L13.7037 27.8701H14.4701L11.9855 21.633H11.0087ZM12.8576 25.7607L11.49 22.3514L10.1312 25.7607H9.63113V26.3584H9.89298L10.1312 25.7607H12.8576Z"/>
<path d="M9.63113 25.7607V26.3584H9.89298L10.1312 25.7607H9.63113Z"/>
<path fill-rule="evenodd" clip-rule="evenodd" d="M24.5386 21.633L22.0539 27.8701H22.8204L23.4229 26.3584H26.6272L27.2336 27.8701H28L25.5154 21.633H24.5386ZM26.3875 25.7607L25.0199 22.3514L23.6611 25.7607H23.161V26.3584H23.4229L23.6611 25.7607H26.3875Z"/>
<path d="M23.161 25.7607V26.3584H23.4229L23.6611 25.7607H23.161Z"/>
<path d="M5.81254 5.47597C5.29087 5.85346 4.98512 6.6529 5.56148 7.60874C6.13783 8.56458 14.372 15.0165 14.6739 15.1957C14.9758 15.375 15.2779 15.4048 16.0461 14.7775C16.8148 14.1502 23.2362 9.24971 23.4019 9.10231C23.6656 8.86779 23.7313 8.29579 23.4019 8.02685C23.4019 8.02685 15.6225 13.941 15.3677 14.1801C15.1132 14.4191 14.7169 14.0308 14.7913 13.5231C14.866 13.0152 14.921 12.9554 15.9091 12.1788C16.8972 11.4021 22.4993 7.08887 22.7535 6.89821C23.0414 6.68214 23.0483 6.30052 22.5768 5.96305C21.9214 5.49384 14.8379 0.376276 14.601 0.19713C14.3634 0.0178359 14.0345 -0.145063 13.5406 0.213377C13.0466 0.571818 6.77091 4.78227 5.81254 5.47597Z"/>
<path d="M14.6739 15.8252C14.4757 15.7075 10.8629 12.8896 8.23872 10.6955V15.2702C8.23669 18.6096 17.4981 20.3938 20.5663 16.2887V11.9163C18.6815 13.3631 16.4767 15.0556 16.0461 15.407C15.2779 16.0342 14.9758 16.0044 14.6739 15.8252Z"/>
<path d="M18.593 10.8091C18.593 10.8091 19.97 11.5124 20.068 14.3426L19.4009 14.1558L18.8671 15.3076C18.6413 12.2085 17.4116 11.7591 17.4116 11.7591L18.593 10.8091Z"/>
</symbol><symbol id="minus" viewBox="0 0 18 2">
  <path d="M0 1H9H18"/>
</symbol><symbol id="navigation-closed-menu" viewBox="0 0 20 20">
<path d="M1 6H19M1 10H19M1 14H19" stroke-linecap="round"/>
</symbol><symbol id="navigation-opened-menu" viewBox="0 0 18 18">
<path d="M1 17L9 9M9 9L17 1M9 9L17 17M9 9L1 1" stroke-linecap="round" stroke-linejoin="round"/>
</symbol><symbol id="ok-mobile" viewBox="0 0 12 12">
  <path d="M6.00008 1.9702C6.69495 1.9702 7.26005 2.52415 7.26005 3.20531C7.26005 3.88441 6.69495 4.43836 6.00008 4.43836C5.30521 4.43836 4.74011 3.88441 4.74011 3.20531C4.74011 2.52415 5.30521 1.9702 6.00008 1.9702ZM6.00008 6.18639C7.67864 6.18639 9.04326 4.8487 9.04326 3.20531C9.04326 1.55986 7.67864 0.222168 6.00008 0.222168C4.32152 0.222168 2.95899 1.55986 2.95899 3.20531C2.95899 4.8487 4.32152 6.18639 6.00008 6.18639ZM7.23075 8.61968C7.85027 8.48017 8.44676 8.24012 8.99722 7.90159C9.41372 7.64513 9.5393 7.10554 9.27768 6.69726C9.01396 6.28692 8.4656 6.16382 8.04701 6.42233C6.80169 7.18966 5.19847 7.18966 3.95106 6.42233C3.53456 6.16382 2.98411 6.28692 2.72248 6.69726C2.46086 7.10554 2.58644 7.64513 3.00294 7.90159C3.55339 8.24012 4.14989 8.48017 4.76941 8.61968L3.06782 10.2856C2.72039 10.6262 2.72039 11.1802 3.06782 11.5208C3.24363 11.691 3.46968 11.7772 3.69781 11.7772C3.92594 11.7772 4.15408 11.691 4.32989 11.5208L6.00008 9.88351L7.67236 11.5208C8.0198 11.8634 8.58281 11.8634 8.93233 11.5208C9.27977 11.1802 9.27977 10.6262 8.93233 10.2856L7.23075 8.61968Z"/>
</symbol><symbol id="ok" viewBox="0 0 16 16">
  <path d="M8.00022 2.42035C8.96235 2.42035 9.7448 3.18736 9.7448 4.1305C9.7448 5.0708 8.96235 5.83781 8.00022 5.83781C7.0381 5.83781 6.25565 5.0708 6.25565 4.1305C6.25565 3.18736 7.0381 2.42035 8.00022 2.42035ZM8.00022 8.25816C10.3244 8.25816 12.2139 6.40597 12.2139 4.1305C12.2139 1.85219 10.3244 0 8.00022 0C5.67606 0 3.78948 1.85219 3.78948 4.1305C3.78948 6.40597 5.67606 8.25816 8.00022 8.25816ZM9.70422 11.6273C10.562 11.4342 11.3879 11.1018 12.1501 10.6331C12.7268 10.278 12.9007 9.53083 12.5384 8.96551C12.1733 8.39735 11.414 8.22691 10.8344 8.58485C9.11014 9.6473 6.8903 9.6473 5.16312 8.58485C4.58642 8.22691 3.82426 8.39735 3.46201 8.96551C3.09977 9.53083 3.27365 10.278 3.85034 10.6331C4.6125 11.1018 5.43842 11.4342 6.29622 11.6273L3.94018 13.934C3.45912 14.4056 3.45912 15.1726 3.94018 15.6442C4.18361 15.88 4.49659 15.9993 4.81246 15.9993C5.12834 15.9993 5.44422 15.88 5.68765 15.6442L8.00022 13.3772L10.3157 15.6442C10.7968 16.1186 11.5763 16.1186 12.0603 15.6442C12.5413 15.1726 12.5413 14.4056 12.0603 13.934L9.70422 11.6273Z"/>
</symbol><symbol id="opened-sublist-navigation" viewBox="0 0 12 12"><g fill="none">
  <path d="M11.454 8.18164L5.99947 3.27255L0.544922 8.18164"/>
</g></symbol><symbol id="plus" viewBox="0 0 18 18">
  <path d="M9 0V9M9 9V18M9 9H0M9 9H18"/>
</symbol><symbol id="reddit-mobile" viewBox="0 0 12 12">
  <path d="M7.02186 0.484863C6.68499 0.484863 6.36888 0.664295 6.16612 0.923053C5.96336 1.18181 5.85161 1.49723 5.77019 1.82965C5.64087 2.36417 5.60095 2.95724 5.59138 3.49175C4.64464 3.55786 3.78731 3.85251 3.07526 4.30769C2.78629 4.05271 2.43825 3.91106 2.10458 3.91483C1.72461 3.91861 1.36379 4.09049 1.09558 4.44368C0.583096 5.11797 0.642167 6.221 1.23607 6.8764C1.19935 7.07849 1.17221 7.28625 1.17221 7.49591C1.17221 9.71708 3.3339 11.5152 6.00008 11.5152C8.66627 11.5152 10.828 9.71519 10.828 7.49591C10.828 7.28625 10.8008 7.07849 10.7641 6.8764C11.358 6.221 11.4171 5.11797 10.9046 4.44368C10.6364 4.09049 10.2756 3.91861 9.89559 3.91483C9.56192 3.91106 9.21388 4.05271 8.92491 4.30769C8.21605 3.85439 7.36351 3.55975 6.42157 3.49175C6.43434 2.99879 6.46786 2.48694 6.56206 2.10163C6.62113 1.85987 6.69138 1.68422 6.76641 1.58789C6.84145 1.49157 6.89573 1.4519 7.02186 1.4519C7.29486 1.4519 7.32998 1.54445 7.49443 1.76921C7.57745 1.88254 7.67324 2.0242 7.8265 2.16207C7.97977 2.29995 8.20647 2.41894 8.45234 2.41894V1.4519C8.38369 1.4519 8.37091 1.45002 8.32462 1.40657C8.27832 1.36313 8.21446 1.26303 8.12026 1.13459C7.93187 0.875835 7.56627 0.484863 7.02186 0.484863ZM9.67846 0.575523C9.04305 0.575523 8.52897 1.1837 8.52897 1.93542C8.52897 2.68715 9.04305 3.29532 9.67846 3.29532C10.3139 3.29532 10.828 2.68715 10.828 1.93542C10.828 1.1837 10.3139 0.575523 9.67846 0.575523ZM9.67846 1.05904C10.0872 1.05904 10.4192 1.4519 10.4192 1.93542C10.4192 2.41894 10.0872 2.8118 9.67846 2.8118C9.26975 2.8118 8.93768 2.41894 8.93768 1.93542C8.93768 1.4519 9.26975 1.05904 9.67846 1.05904ZM6.00008 4.24725C8.26235 4.24725 10.1766 5.73748 10.1766 7.49591C10.1766 9.25622 8.26235 10.7446 6.00008 10.7446C3.73782 10.7446 1.82359 9.25622 1.82359 7.49591C1.82359 5.73748 3.73782 4.24725 6.00008 4.24725ZM2.11735 4.68544C2.2307 4.68733 2.34885 4.71755 2.4622 4.7761C2.05189 5.14441 1.7262 5.56749 1.50429 6.04535C1.35102 5.67137 1.39253 5.20485 1.58092 4.95743C1.71822 4.7761 1.90821 4.68356 2.11735 4.68544ZM9.88282 4.68544C10.092 4.68356 10.2819 4.7761 10.4192 4.95743C10.6076 5.20485 10.6491 5.67137 10.4959 6.04535C10.274 5.56749 9.94828 5.14441 9.53797 4.7761C9.65132 4.71755 9.76947 4.68733 9.88282 4.68544ZM4.36525 5.89425C3.95654 5.89425 3.62446 6.28711 3.62446 6.77063C3.62446 7.25415 3.95654 7.64701 4.36525 7.64701C4.77396 7.64701 5.10603 7.25415 5.10603 6.77063C5.10603 6.28711 4.77396 5.89425 4.36525 5.89425ZM7.63492 5.89425C7.22621 5.89425 6.89413 6.28711 6.89413 6.77063C6.89413 7.25415 7.22621 7.64701 7.63492 7.64701C8.04363 7.64701 8.3757 7.25415 8.3757 6.77063C8.3757 6.28711 8.04363 5.89425 7.63492 5.89425ZM3.96931 8.87092C4.22954 9.50743 5.03419 10.125 6.00008 10.125C6.96598 10.125 7.7834 9.50743 8.04363 8.87092C7.57106 9.23167 6.82548 9.47532 6.00008 9.47532C5.17468 9.47532 4.44188 9.23167 3.96931 8.87092Z"/>
</symbol><symbol id="reddit" viewBox="0 0 16 16">
  <path d="M9.41454 0.36377C8.94811 0.36377 8.51042 0.612213 8.22968 0.970494C7.94894 1.32878 7.7942 1.76551 7.68146 2.22579C7.5024 2.96589 7.44714 3.78706 7.43387 4.52716C6.12301 4.61869 4.93594 5.02666 3.95002 5.65692C3.54991 5.30387 3.06801 5.10773 2.606 5.11296C2.07989 5.11819 1.5803 5.35617 1.20892 5.84521C0.499333 6.77884 0.581124 8.30611 1.40345 9.21358C1.35261 9.49341 1.31503 9.78108 1.31503 10.0714C1.31503 13.1468 4.30814 15.6365 7.99978 15.6365C11.6914 15.6365 14.6845 13.1442 14.6845 10.0714C14.6845 9.78108 14.6469 9.49341 14.5961 9.21358C15.4184 8.30611 15.5002 6.77884 14.7906 5.84521C14.4193 5.35617 13.9197 5.11819 13.3936 5.11296C12.9315 5.10773 12.4496 5.30387 12.0495 5.65692C11.068 5.02927 9.8876 4.6213 8.58337 4.52716C8.60105 3.84459 8.64747 3.13587 8.7779 2.60237C8.85969 2.26763 8.95695 2.02442 9.06085 1.89104C9.16475 1.75767 9.2399 1.70275 9.41454 1.70275C9.79255 1.70275 9.84118 1.83089 10.0689 2.1421C10.1838 2.29901 10.3165 2.49515 10.5287 2.68606C10.7409 2.87697 11.0548 3.04173 11.3952 3.04173V1.70275C11.3002 1.70275 11.2825 1.70013 11.2184 1.63998C11.1543 1.57983 11.0658 1.44123 10.9354 1.2634C10.6746 0.905115 10.1683 0.36377 9.41454 0.36377ZM13.0929 0.489299C12.2131 0.489299 11.5013 1.33139 11.5013 2.37224C11.5013 3.41308 12.2131 4.25518 13.0929 4.25518C13.9727 4.25518 14.6845 3.41308 14.6845 2.37224C14.6845 1.33139 13.9727 0.489299 13.0929 0.489299ZM13.0929 1.15879C13.6588 1.15879 14.1186 1.70275 14.1186 2.37224C14.1186 3.04173 13.6588 3.58569 13.0929 3.58569C12.527 3.58569 12.0672 3.04173 12.0672 2.37224C12.0672 1.70275 12.527 1.15879 13.0929 1.15879ZM7.99978 5.57323C11.1321 5.57323 13.7826 7.63662 13.7826 10.0714C13.7826 12.5087 11.1321 14.5695 7.99978 14.5695C4.86741 14.5695 2.21694 12.5087 2.21694 10.0714C2.21694 7.63662 4.86741 5.57323 7.99978 5.57323ZM2.62369 6.17996C2.78064 6.18257 2.94422 6.22442 3.10117 6.30549C2.53305 6.81545 2.0821 7.40125 1.77483 8.0629C1.56261 7.54509 1.62009 6.89914 1.88094 6.55655C2.07104 6.30549 2.3341 6.17734 2.62369 6.17996ZM13.3759 6.17996C13.6655 6.17734 13.9285 6.30549 14.1186 6.55655C14.3795 6.89914 14.4369 7.54509 14.2247 8.0629C13.9175 7.40125 13.4665 6.81545 12.8984 6.30549C13.0553 6.22442 13.2189 6.18257 13.3759 6.17996ZM5.73616 7.85368C5.17026 7.85368 4.71046 8.39764 4.71046 9.06713C4.71046 9.73662 5.17026 10.2806 5.73616 10.2806C6.30206 10.2806 6.76186 9.73662 6.76186 9.06713C6.76186 8.39764 6.30206 7.85368 5.73616 7.85368ZM10.2634 7.85368C9.69749 7.85368 9.23769 8.39764 9.23769 9.06713C9.23769 9.73662 9.69749 10.2806 10.2634 10.2806C10.8293 10.2806 11.2891 9.73662 11.2891 9.06713C11.2891 8.39764 10.8293 7.85368 10.2634 7.85368ZM5.18794 11.9752C5.54826 12.8565 6.66239 13.7117 7.99978 13.7117C9.33717 13.7117 10.469 12.8565 10.8293 11.9752C10.175 12.4747 9.14264 12.8121 7.99978 12.8121C6.85692 12.8121 5.84227 12.4747 5.18794 11.9752Z"/>
</symbol><symbol id="vk-mobile" viewBox="0 0 12 12">
  <path d="M11.6747 8.47054C11.6437 8.42082 11.4515 8.02173 10.527 7.20145C9.55918 6.34249 9.68919 6.48197 10.8549 4.99676C11.5649 4.09224 11.8488 3.53986 11.76 3.30371C11.6754 3.07862 11.1532 3.138 11.1532 3.138L9.41689 3.14767C9.41689 3.14767 9.28833 3.1311 9.19227 3.18564C9.09909 3.2395 9.03914 3.36379 9.03914 3.36379C9.03914 3.36379 8.76396 4.06393 8.39704 4.65912C7.62349 5.91509 7.31363 5.98138 7.18723 5.90335C6.89326 5.72176 6.96694 5.17283 6.96694 4.7834C6.96694 3.56609 7.15978 3.0586 6.59063 2.92741C6.40139 2.88391 6.26272 2.85491 5.77952 2.85007C5.1598 2.84386 4.63471 2.85214 4.33785 2.99093C4.13995 3.08345 3.98755 3.28991 4.08072 3.30164C4.19557 3.31614 4.45559 3.36862 4.59354 3.54814C4.77194 3.77945 4.76544 4.30007 4.76544 4.30007C4.76544 4.30007 4.868 5.73281 4.52637 5.91095C4.29163 6.03316 3.97022 5.7839 3.28044 4.64393C2.92725 4.06047 2.66001 3.41488 2.66001 3.41488C2.66001 3.41488 2.60873 3.29474 2.517 3.23052C2.40577 3.1525 2.24976 3.12764 2.24976 3.12764L0.598635 3.13731C0.598635 3.13731 0.350894 3.14421 0.259888 3.2471C0.178993 3.33893 0.253387 3.52812 0.253387 3.52812C0.253387 3.52812 1.54626 6.41914 3.00959 7.87673C4.3523 9.2128 5.8763 9.12511 5.8763 9.12511H6.5668C6.5668 9.12511 6.77553 9.10301 6.88171 8.99323C6.97994 8.89242 6.97633 8.70323 6.97633 8.70323C6.97633 8.70323 6.9626 7.81735 7.39308 7.68685C7.81705 7.55842 8.36165 8.54304 8.93875 8.92211C9.375 9.20866 9.70653 9.14582 9.70653 9.14582L11.25 9.12511C11.25 9.12511 12.0575 9.07747 11.6747 8.47054Z"/>
</symbol><symbol id="vk" viewBox="0 0 16 16">
  <path d="M15.8574 11.4204C15.8144 11.3516 15.5484 10.799 14.2683 9.6632C12.9282 8.47389 13.1082 8.66701 14.7223 6.61056C15.7054 5.35814 16.0984 4.59331 15.9754 4.26634C15.8584 3.95467 15.1353 4.03689 15.1353 4.03689L12.7312 4.05028C12.7312 4.05028 12.5531 4.02733 12.4201 4.10286C12.2911 4.17743 12.2081 4.34952 12.2081 4.34952C12.2081 4.34952 11.8271 5.31895 11.3191 6.14305C10.248 7.8821 9.81894 7.97388 9.64393 7.86584C9.2369 7.6144 9.33891 6.85435 9.33891 6.31514C9.33891 4.62964 9.60593 3.92695 8.81787 3.7453C8.55585 3.68507 8.36384 3.64492 7.69479 3.63822C6.83672 3.62962 6.10967 3.64109 5.69864 3.83326C5.42462 3.96137 5.21361 4.24722 5.34262 4.26348C5.50163 4.28355 5.86165 4.35621 6.05267 4.60478C6.29969 4.92506 6.29069 5.64591 6.29069 5.64591C6.29069 5.64591 6.4327 7.6297 5.95966 7.87636C5.63464 8.04558 5.1896 7.70045 4.23453 6.12202C3.7455 5.31417 3.37547 4.42027 3.37547 4.42027C3.37547 4.42027 3.30447 4.25391 3.17746 4.165C3.02345 4.05697 2.80743 4.02255 2.80743 4.02255L0.521262 4.03594C0.521262 4.03594 0.178236 4.0455 0.0522271 4.18795C-0.0597811 4.3151 0.0432264 4.57706 0.0432264 4.57706C0.0432264 4.57706 1.83336 8.58001 3.85951 10.5982C5.71864 12.4482 7.8288 12.3267 7.8288 12.3267H8.78487C8.78487 12.3267 9.07389 12.2961 9.2209 12.1441C9.35691 12.0045 9.35191 11.7426 9.35191 11.7426C9.35191 11.7426 9.33291 10.516 9.92895 10.3353C10.516 10.1575 11.2701 11.5208 12.0691 12.0457C12.6732 12.4424 13.1322 12.3554 13.1322 12.3554L15.2693 12.3267C15.2693 12.3267 16.3874 12.2608 15.8574 11.4204Z"/>
</symbol></svg>